<svg xmlns="http://www.w3.org/2000/svg" viewBox="0 0 40 80">
  <!-- 月桂樹（片側）。CSSのmask-imageで使用し、色はbackgroundで着ける -->
  <g fill="#000">
    <path d="M30 76 C18 68 12 56 12 40 C12 26 17 14 27 4 L29 6 C20 15 15 26 15 40 C15 54 21 65 32 73 Z"/>
    <ellipse cx="26" cy="8"  rx="3.2" ry="7" transform="rotate(38 26 8)"/>
    <ellipse cx="20" cy="18" rx="3.4" ry="7.6" transform="rotate(28 20 18)"/>
    <ellipse cx="16" cy="30" rx="3.6" ry="8" transform="rotate(16 16 30)"/>
    <ellipse cx="15" cy="43" rx="3.6" ry="8" transform="rotate(4 15 43)"/>
    <ellipse cx="17" cy="56" rx="3.6" ry="8" transform="rotate(-10 17 56)"/>
    <ellipse cx="22" cy="67" rx="3.4" ry="7.4" transform="rotate(-24 22 67)"/>
    <ellipse cx="31" cy="14" rx="2.8" ry="6.2" transform="rotate(52 31 14)"/>
    <ellipse cx="25" cy="25" rx="3.0" ry="6.8" transform="rotate(40 25 25)"/>
    <ellipse cx="22" cy="37" rx="3.2" ry="7" transform="rotate(28 22 37)"/>
    <ellipse cx="22" cy="50" rx="3.2" ry="7" transform="rotate(14 22 50)"/>
    <ellipse cx="26" cy="61" rx="3.0" ry="6.6" transform="rotate(-2 26 61)"/>
  </g>
</svg>
